# xmcd
# 
# Track frame offsets:
#     150
#     24442
#     45055
#     67960
#     99165
#     117510
#     137937
#     156265
#     177630
#     196407
# 
# Disc length: 2881
# 
# Revision: 1
# Processed by: cddbd v1.5.2PL0 Copyright (c) Steve Scherf et al.
# Submitted via: BonkEnc v1.0.5
# 
DISCID=810b3f0a
DTITLE=Various Artist - Essence of life “love”
DYEAR=2006
DGENRE=Jazz
TTITLE0=Soma - 浪漫飛行
TTITLE1=Asa festoon - 南風
TTITLE2=Asa festoon - 口笛
TTITLE3=Soma - 遠く遠く
TTITLE4=MOTIVA.FEAT.Kana Otubo(Spangle call Lilli line) - ノーサイド
TTITLE5=The Emigrants - DANCING QUEEN
TTITLE6=The Emigrants and Be The Voice - ROCK WITH YOU
TTITLE7=The Emigrants and Be The Voice - VIDEO KILLED THE RADIO STAR
TTITLE8=Misa Joey - 青空
TTITLE9=Asa festoon - らいおんハート
EXTD=YEAR: 2006
EXTT0=
EXTT1=
EXTT2=
EXTT3=
EXTT4=
EXTT5=
EXTT6=
EXTT7=
EXTT8=
EXTT9=
PLAYORDER=
